<?xml version="1.0" encoding="UTF-8" standalone="no"?>
<!DOCTYPE svg PUBLIC "-//W3C//DTD SVG 1.1//EN"
 "http://www.w3.org/Graphics/SVG/1.1/DTD/svg11.dtd">
<!-- Generated by graphviz version 9.0.0 (20230911.1827)
 -->
<!-- Pages: 1 -->
<svg width="1780pt" height="188pt"
 viewBox="0.00 0.00 1779.68 188.00" xmlns="http://www.w3.org/2000/svg" xmlns:xlink="http://www.w3.org/1999/xlink">
<g id="graph0" class="graph" transform="scale(1 1) rotate(0) translate(4 184)">
<polygon fill="white" stroke="none" points="-4,4 -4,-184 1775.68,-184 1775.68,4 -4,4"/>
<!-- Practice7 -->
<g id="node1" class="node">
<title>Practice7</title>
<ellipse fill="none" stroke="black" cx="909.08" cy="-162" rx="45.08" ry="18"/>
<text text-anchor="middle" x="909.08" y="-156.57" font-family="Times New Roman,serif" font-size="14.00">Practice7</text>
</g>
<!-- task1.py -->
<g id="node2" class="node">
<title>task1.py</title>
<ellipse fill="none" stroke="black" cx="42.08" cy="-90" rx="42.08" ry="18"/>
<text text-anchor="middle" x="42.08" y="-84.58" font-family="Times New Roman,serif" font-size="14.00">task1.py</text>
</g>
<!-- Practice7&#45;&gt;task1.py -->
<g id="edge1" class="edge">
<title>Practice7&#45;&gt;task1.py</title>
<path fill="none" stroke="black" d="M864,-159.6C715.51,-154.73 242.68,-137.28 93.08,-108 89.95,-107.39 86.74,-106.63 83.53,-105.79"/>
<polygon fill="black" stroke="black" points="84.79,-102.51 74.21,-103.06 82.82,-109.23 84.79,-102.51"/>
</g>
<!-- task2.py -->
<g id="node3" class="node">
<title>task2.py</title>
<ellipse fill="none" stroke="black" cx="144.08" cy="-90" rx="42.08" ry="18"/>
<text text-anchor="middle" x="144.08" y="-84.58" font-family="Times New Roman,serif" font-size="14.00">task2.py</text>
</g>
<!-- Practice7&#45;&gt;task2.py -->
<g id="edge2" class="edge">
<title>Practice7&#45;&gt;task2.py</title>
<path fill="none" stroke="black" d="M863.86,-161.5C750.23,-161.92 444.01,-157.92 195.08,-108 192.1,-107.4 189.04,-106.68 185.99,-105.87"/>
<polygon fill="black" stroke="black" points="187.07,-102.54 176.49,-103.1 185.11,-109.26 187.07,-102.54"/>
</g>
<!-- task3.py -->
<g id="node4" class="node">
<title>task3.py</title>
<ellipse fill="none" stroke="black" cx="246.08" cy="-90" rx="42.08" ry="18"/>
<text text-anchor="middle" x="246.08" y="-84.58" font-family="Times New Roman,serif" font-size="14.00">task3.py</text>
</g>
<!-- Practice7&#45;&gt;task3.py -->
<g id="edge3" class="edge">
<title>Practice7&#45;&gt;task3.py</title>
<path fill="none" stroke="black" d="M863.64,-160.7C761.36,-159.24 505.69,-151.17 297.08,-108 294.1,-107.38 291.05,-106.65 288,-105.83"/>
<polygon fill="black" stroke="black" points="289.08,-102.5 278.5,-103.04 287.11,-109.22 289.08,-102.5"/>
</g>
<!-- task4.py -->
<g id="node5" class="node">
<title>task4.py</title>
<ellipse fill="none" stroke="black" cx="348.08" cy="-90" rx="42.08" ry="18"/>
<text text-anchor="middle" x="348.08" y="-84.58" font-family="Times New Roman,serif" font-size="14.00">task4.py</text>
</g>
<!-- Practice7&#45;&gt;task4.py -->
<g id="edge4" class="edge">
<title>Practice7&#45;&gt;task4.py</title>
<path fill="none" stroke="black" d="M864.23,-159.62C774.79,-156.15 568.32,-144.54 399.08,-108 396.11,-107.36 393.06,-106.6 390.01,-105.77"/>
<polygon fill="black" stroke="black" points="391.1,-102.45 380.52,-102.96 389.11,-109.16 391.1,-102.45"/>
</g>
<!-- HashTable.py -->
<g id="node6" class="node">
<title>HashTable.py</title>
<ellipse fill="none" stroke="black" cx="471.08" cy="-90" rx="62.54" ry="18"/>
<text text-anchor="middle" x="471.08" y="-84.58" font-family="Times New Roman,serif" font-size="14.00">HashTable.py</text>
</g>
<!-- Practice7&#45;&gt;HashTable.py -->
<g id="edge5" class="edge">
<title>Practice7&#45;&gt;HashTable.py</title>
<path fill="none" stroke="black" d="M866.05,-156.02C797.44,-147.79 659.14,-130.06 543.08,-108 538.19,-107.07 533.14,-106.03 528.07,-104.94"/>
<polygon fill="black" stroke="black" points="529.04,-101.57 518.52,-102.82 527.52,-108.41 529.04,-101.57"/>
</g>
<!-- 1.py -->
<g id="node7" class="node">
<title>1.py</title>
<ellipse fill="none" stroke="black" cx="579.08" cy="-90" rx="27.11" ry="18"/>
<text text-anchor="middle" x="579.08" y="-84.58" font-family="Times New Roman,serif" font-size="14.00">1.py</text>
</g>
<!-- Practice7&#45;&gt;1.py -->
<g id="edge6" class="edge">
<title>Practice7&#45;&gt;1.py</title>
<path fill="none" stroke="black" d="M865.87,-156.8C807.77,-150.36 701.77,-135.75 615.08,-108 613.52,-107.5 611.94,-106.95 610.35,-106.35"/>
<polygon fill="black" stroke="black" points="612,-103.25 601.42,-102.61 609.29,-109.7 612,-103.25"/>
</g>
<!-- 2.py -->
<g id="node9" class="node">
<title>2.py</title>
<ellipse fill="none" stroke="black" cx="909.08" cy="-90" rx="27.11" ry="18"/>
<text text-anchor="middle" x="909.08" y="-84.58" font-family="Times New Roman,serif" font-size="14.00">2.py</text>
</g>
<!-- Practice7&#45;&gt;2.py -->
<g id="edge8" class="edge">
<title>Practice7&#45;&gt;2.py</title>
<path fill="none" stroke="black" d="M909.08,-143.7C909.08,-136.41 909.08,-127.73 909.08,-119.54"/>
<polygon fill="black" stroke="black" points="912.58,-119.62 909.08,-109.62 905.58,-119.62 912.58,-119.62"/>
</g>
<!-- 3.py -->
<g id="node10" class="node">
<title>3.py</title>
<ellipse fill="none" stroke="black" cx="651.08" cy="-90" rx="27.11" ry="18"/>
<text text-anchor="middle" x="651.08" y="-84.58" font-family="Times New Roman,serif" font-size="14.00">3.py</text>
</g>
<!-- Practice7&#45;&gt;3.py -->
<g id="edge9" class="edge">
<title>Practice7&#45;&gt;3.py</title>
<path fill="none" stroke="black" d="M868.48,-153.74C823.63,-145.15 749.61,-129.28 688.08,-108 686.29,-107.38 684.47,-106.7 682.64,-105.99"/>
<polygon fill="black" stroke="black" points="684.28,-102.88 673.71,-102.2 681.55,-109.33 684.28,-102.88"/>
</g>
<!-- 4.py -->
<g id="node11" class="node">
<title>4.py</title>
<ellipse fill="none" stroke="black" cx="981.08" cy="-90" rx="27.11" ry="18"/>
<text text-anchor="middle" x="981.08" y="-84.58" font-family="Times New Roman,serif" font-size="14.00">4.py</text>
</g>
<!-- Practice7&#45;&gt;4.py -->
<g id="edge11" class="edge">
<title>Practice7&#45;&gt;4.py</title>
<path fill="none" stroke="black" d="M925.42,-145.12C935.11,-135.69 947.54,-123.61 958.2,-113.25"/>
<polygon fill="black" stroke="black" points="960.46,-115.93 965.19,-106.45 955.58,-110.91 960.46,-115.93"/>
</g>
<!-- 5.py -->
<g id="node14" class="node">
<title>5.py</title>
<ellipse fill="none" stroke="black" cx="1053.08" cy="-90" rx="27.11" ry="18"/>
<text text-anchor="middle" x="1053.08" y="-84.58" font-family="Times New Roman,serif" font-size="14.00">5.py</text>
</g>
<!-- Practice7&#45;&gt;5.py -->
<g id="edge14" class="edge">
<title>Practice7&#45;&gt;5.py</title>
<path fill="none" stroke="black" d="M936.85,-147.5C961.02,-135.75 996.05,-118.72 1021.33,-106.44"/>
<polygon fill="black" stroke="black" points="1022.68,-109.67 1030.14,-102.15 1019.62,-103.38 1022.68,-109.67"/>
</g>
<!-- html.py -->
<g id="node16" class="node">
<title>html.py</title>
<ellipse fill="none" stroke="black" cx="1144.08" cy="-90" rx="38.59" ry="18"/>
<text text-anchor="middle" x="1144.08" y="-84.58" font-family="Times New Roman,serif" font-size="14.00">html.py</text>
</g>
<!-- Practice7&#45;&gt;html.py -->
<g id="edge18" class="edge">
<title>Practice7&#45;&gt;html.py</title>
<path fill="none" stroke="black" d="M944.64,-150.68C980.98,-140.1 1039.03,-123.1 1089.08,-108 1093.27,-106.74 1097.63,-105.41 1101.98,-104.08"/>
<polygon fill="black" stroke="black" points="1102.72,-107.51 1111.25,-101.23 1100.66,-100.82 1102.72,-107.51"/>
</g>
<!-- api_generator.py -->
<g id="node19" class="node">
<title>api_generator.py</title>
<ellipse fill="none" stroke="black" cx="1274.08" cy="-90" rx="73.02" ry="18"/>
<text text-anchor="middle" x="1274.08" y="-84.58" font-family="Times New Roman,serif" font-size="14.00">api_generator.py</text>
</g>
<!-- Practice7&#45;&gt;api_generator.py -->
<g id="edge21" class="edge">
<title>Practice7&#45;&gt;api_generator.py</title>
<path fill="none" stroke="black" d="M949.43,-153.7C1004.38,-143.69 1105.77,-125.03 1192.08,-108 1197.56,-106.92 1203.24,-105.78 1208.93,-104.63"/>
<polygon fill="black" stroke="black" points="1209.28,-108.13 1218.38,-102.7 1207.88,-101.27 1209.28,-108.13"/>
</g>
<!-- example.py -->
<g id="node23" class="node">
<title>example.py</title>
<ellipse fill="none" stroke="black" cx="1418.08" cy="-90" rx="53.06" ry="18"/>
<text text-anchor="middle" x="1418.08" y="-84.58" font-family="Times New Roman,serif" font-size="14.00">example.py</text>
</g>
<!-- Practice7&#45;&gt;example.py -->
<g id="edge25" class="edge">
<title>Practice7&#45;&gt;example.py</title>
<path fill="none" stroke="black" d="M953.52,-157.95C1034.25,-151.91 1210.16,-136.49 1356.08,-108 1360.1,-107.22 1364.23,-106.31 1368.38,-105.33"/>
<polygon fill="black" stroke="black" points="1368.95,-108.79 1377.8,-102.97 1367.25,-102 1368.95,-108.79"/>
</g>
<!-- module_scanner.py -->
<g id="node24" class="node">
<title>module_scanner.py</title>
<ellipse fill="none" stroke="black" cx="780.08" cy="-90" rx="83.5" ry="18"/>
<text text-anchor="middle" x="780.08" y="-84.58" font-family="Times New Roman,serif" font-size="14.00">module_scanner.py</text>
</g>
<!-- Practice7&#45;&gt;module_scanner.py -->
<g id="edge26" class="edge">
<title>Practice7&#45;&gt;module_scanner.py</title>
<path fill="none" stroke="black" d="M883.29,-147C865.17,-137.17 840.59,-123.84 819.97,-112.64"/>
<polygon fill="black" stroke="black" points="821.69,-109.6 811.23,-107.9 818.35,-115.75 821.69,-109.6"/>
</g>
<!-- fortik.py -->
<g id="node26" class="node">
<title>fortik.py</title>
<ellipse fill="none" stroke="black" cx="1532.08" cy="-90" rx="42.58" ry="18"/>
<text text-anchor="middle" x="1532.08" y="-84.58" font-family="Times New Roman,serif" font-size="14.00">fortik.py</text>
</g>
<!-- Practice7&#45;&gt;fortik.py -->
<g id="edge29" class="edge">
<title>Practice7&#45;&gt;fortik.py</title>
<path fill="none" stroke="black" d="M954.23,-160.09C1050.37,-157.47 1281.47,-147.28 1471.08,-108 1476.16,-106.95 1481.44,-105.57 1486.69,-104.05"/>
<polygon fill="black" stroke="black" points="1487.36,-107.51 1495.91,-101.25 1485.32,-100.81 1487.36,-107.51"/>
</g>
<!-- Practice7&#45;&gt;fortik.py -->
<g id="edge30" class="edge">
<title>Practice7&#45;&gt;fortik.py</title>
<path fill="none" stroke="black" d="M954.34,-160.33C1052.88,-158.11 1293.13,-148.59 1489.08,-108 1490.49,-107.71 1491.92,-107.39 1493.36,-107.05"/>
<polygon fill="black" stroke="black" points="1494.13,-110.47 1502.88,-104.5 1492.32,-103.71 1494.13,-110.47"/>
</g>
<!-- painting.py -->
<g id="node27" class="node">
<title>painting.py</title>
<ellipse fill="none" stroke="black" cx="1651.08" cy="-90" rx="51.56" ry="18"/>
<text text-anchor="middle" x="1651.08" y="-84.58" font-family="Times New Roman,serif" font-size="14.00">painting.py</text>
</g>
<!-- Practice7&#45;&gt;painting.py -->
<g id="edge31" class="edge">
<title>Practice7&#45;&gt;painting.py</title>
<path fill="none" stroke="black" d="M954.02,-160.11C1062.86,-157.38 1348.93,-146.78 1584.08,-108 1589.64,-107.08 1595.41,-105.93 1601.13,-104.66"/>
<polygon fill="black" stroke="black" points="1601.59,-108.15 1610.52,-102.45 1599.98,-101.34 1601.59,-108.15"/>
</g>
<!-- graphviz -->
<g id="node8" class="node">
<title>graphviz</title>
<ellipse fill="none" stroke="black" cx="625.08" cy="-18" rx="42.08" ry="18"/>
<text text-anchor="middle" x="625.08" y="-12.57" font-family="Times New Roman,serif" font-size="14.00">graphviz</text>
</g>
<!-- 1.py&#45;&gt;graphviz -->
<g id="edge7" class="edge">
<title>1.py&#45;&gt;graphviz</title>
<path fill="none" stroke="black" d="M589.52,-73.12C594.95,-64.85 601.73,-54.54 607.9,-45.14"/>
<polygon fill="black" stroke="black" points="610.65,-47.34 613.21,-37.06 604.8,-43.5 610.65,-47.34"/>
</g>
<!-- 3.py&#45;&gt;graphviz -->
<g id="edge10" class="edge">
<title>3.py&#45;&gt;graphviz</title>
<path fill="none" stroke="black" d="M644.79,-72.05C641.99,-64.52 638.62,-55.44 635.46,-46.94"/>
<polygon fill="black" stroke="black" points="638.79,-45.85 632.03,-37.69 632.23,-48.29 638.79,-45.85"/>
</g>
<!-- numpy -->
<g id="node12" class="node">
<title>numpy</title>
<ellipse fill="none" stroke="black" cx="793.08" cy="-18" rx="36.09" ry="18"/>
<text text-anchor="middle" x="793.08" y="-12.57" font-family="Times New Roman,serif" font-size="14.00">numpy</text>
</g>
<!-- 4.py&#45;&gt;numpy -->
<g id="edge12" class="edge">
<title>4.py&#45;&gt;numpy</title>
<path fill="none" stroke="black" d="M959.94,-78.52C955.11,-76.26 949.95,-73.96 945.08,-72 898.54,-53.26 885.34,-52.87 838.08,-36 836.02,-35.26 833.9,-34.5 831.77,-33.72"/>
<polygon fill="black" stroke="black" points="833.12,-30.49 822.53,-30.3 830.69,-37.05 833.12,-30.49"/>
</g>
<!-- matplotlib.pyplot -->
<g id="node13" class="node">
<title>matplotlib.pyplot</title>
<ellipse fill="none" stroke="black" cx="921.08" cy="-18" rx="74.02" ry="18"/>
<text text-anchor="middle" x="921.08" y="-12.57" font-family="Times New Roman,serif" font-size="14.00">matplotlib.pyplot</text>
</g>
<!-- 4.py&#45;&gt;matplotlib.pyplot -->
<g id="edge13" class="edge">
<title>4.py&#45;&gt;matplotlib.pyplot</title>
<path fill="none" stroke="black" d="M968.06,-73.81C960.78,-65.31 951.51,-54.49 943.12,-44.72"/>
<polygon fill="black" stroke="black" points="945.91,-42.59 936.75,-37.28 940.6,-47.15 945.91,-42.59"/>
</g>
<!-- 5.py&#45;&gt;numpy -->
<g id="edge15" class="edge">
<title>5.py&#45;&gt;numpy</title>
<path fill="none" stroke="black" d="M1032.11,-78.05C1027.27,-75.82 1022.07,-73.65 1017.08,-72 940.05,-46.49 916.07,-58.41 838.08,-36 835.82,-35.35 833.52,-34.64 831.21,-33.89"/>
<polygon fill="black" stroke="black" points="832.47,-30.62 821.88,-30.65 830.18,-37.23 832.47,-30.62"/>
</g>
<!-- 5.py&#45;&gt;matplotlib.pyplot -->
<g id="edge16" class="edge">
<title>5.py&#45;&gt;matplotlib.pyplot</title>
<path fill="none" stroke="black" d="M1032.46,-78.06C1013.38,-67.95 984.51,-52.63 960.94,-40.13"/>
<polygon fill="black" stroke="black" points="962.68,-37.1 952.21,-35.51 959.4,-43.28 962.68,-37.1"/>
</g>
<!-- seaborn -->
<g id="node15" class="node">
<title>seaborn</title>
<ellipse fill="none" stroke="black" cx="1053.08" cy="-18" rx="40.09" ry="18"/>
<text text-anchor="middle" x="1053.08" y="-12.57" font-family="Times New Roman,serif" font-size="14.00">seaborn</text>
</g>
<!-- 5.py&#45;&gt;seaborn -->
<g id="edge17" class="edge">
<title>5.py&#45;&gt;seaborn</title>
<path fill="none" stroke="black" d="M1053.08,-71.7C1053.08,-64.41 1053.08,-55.73 1053.08,-47.54"/>
<polygon fill="black" stroke="black" points="1056.58,-47.62 1053.08,-37.62 1049.58,-47.62 1056.58,-47.62"/>
</g>
<!-- contextlib -->
<g id="node17" class="node">
<title>contextlib</title>
<ellipse fill="none" stroke="black" cx="1158.08" cy="-18" rx="47.07" ry="18"/>
<text text-anchor="middle" x="1158.08" y="-12.57" font-family="Times New Roman,serif" font-size="14.00">contextlib</text>
</g>
<!-- html.py&#45;&gt;contextlib -->
<g id="edge19" class="edge">
<title>html.py&#45;&gt;contextlib</title>
<path fill="none" stroke="black" d="M1147.54,-71.7C1149.02,-64.32 1150.78,-55.52 1152.43,-47.25"/>
<polygon fill="black" stroke="black" points="1155.84,-48.08 1154.36,-37.59 1148.97,-46.71 1155.84,-48.08"/>
</g>
<!-- typing -->
<g id="node18" class="node">
<title>typing</title>
<ellipse fill="none" stroke="black" cx="1257.08" cy="-18" rx="33.6" ry="18"/>
<text text-anchor="middle" x="1257.08" y="-12.57" font-family="Times New Roman,serif" font-size="14.00">typing</text>
</g>
<!-- html.py&#45;&gt;typing -->
<g id="edge20" class="edge">
<title>html.py&#45;&gt;typing</title>
<path fill="none" stroke="black" d="M1166.68,-75C1183.71,-64.45 1207.27,-49.86 1226.07,-38.21"/>
<polygon fill="black" stroke="black" points="1227.73,-41.3 1234.39,-33.06 1224.04,-35.35 1227.73,-41.3"/>
</g>
<!-- inspect -->
<g id="node20" class="node">
<title>inspect</title>
<ellipse fill="none" stroke="black" cx="1346.08" cy="-18" rx="37.09" ry="18"/>
<text text-anchor="middle" x="1346.08" y="-12.57" font-family="Times New Roman,serif" font-size="14.00">inspect</text>
</g>
<!-- api_generator.py&#45;&gt;inspect -->
<g id="edge22" class="edge">
<title>api_generator.py&#45;&gt;inspect</title>
<path fill="none" stroke="black" d="M1291.51,-72.05C1300.75,-63.08 1312.22,-51.92 1322.27,-42.15"/>
<polygon fill="black" stroke="black" points="1324.47,-44.89 1329.2,-35.41 1319.59,-39.87 1324.47,-44.89"/>
</g>
<!-- matplotlib -->
<g id="node21" class="node">
<title>matplotlib</title>
<ellipse fill="none" stroke="black" cx="1449.08" cy="-18" rx="47.57" ry="18"/>
<text text-anchor="middle" x="1449.08" y="-12.57" font-family="Times New Roman,serif" font-size="14.00">matplotlib</text>
</g>
<!-- api_generator.py&#45;&gt;matplotlib -->
<g id="edge23" class="edge">
<title>api_generator.py&#45;&gt;matplotlib</title>
<path fill="none" stroke="black" d="M1311.19,-74.15C1339.13,-62.98 1377.46,-47.65 1406.62,-35.99"/>
<polygon fill="black" stroke="black" points="1407.91,-39.24 1415.9,-32.27 1405.31,-32.74 1407.91,-39.24"/>
</g>
<!-- example -->
<g id="node22" class="node">
<title>example</title>
<ellipse fill="none" stroke="black" cx="1556.08" cy="-18" rx="41.08" ry="18"/>
<text text-anchor="middle" x="1556.08" y="-12.57" font-family="Times New Roman,serif" font-size="14.00">example</text>
</g>
<!-- api_generator.py&#45;&gt;example -->
<g id="edge24" class="edge">
<title>api_generator.py&#45;&gt;example</title>
<path fill="none" stroke="black" d="M1327.71,-77.42C1385.33,-64.86 1473.09,-45.35 1506.08,-36 1508.78,-35.23 1511.55,-34.41 1514.34,-33.55"/>
<polygon fill="black" stroke="black" points="1515.14,-36.97 1523.59,-30.57 1513,-30.3 1515.14,-36.97"/>
</g>
<!-- module_scanner.py&#45;&gt;graphviz -->
<g id="edge28" class="edge">
<title>module_scanner.py&#45;&gt;graphviz</title>
<path fill="none" stroke="black" d="M745.3,-73.29C721.01,-62.32 688.58,-47.68 663.52,-36.36"/>
<polygon fill="black" stroke="black" points="665.22,-33.28 654.66,-32.36 662.34,-39.66 665.22,-33.28"/>
</g>
<!-- os -->
<g id="node25" class="node">
<title>os</title>
<ellipse fill="none" stroke="black" cx="712.08" cy="-18" rx="27" ry="18"/>
<text text-anchor="middle" x="712.08" y="-12.57" font-family="Times New Roman,serif" font-size="14.00">os</text>
</g>
<!-- module_scanner.py&#45;&gt;os -->
<g id="edge27" class="edge">
<title>module_scanner.py&#45;&gt;os</title>
<path fill="none" stroke="black" d="M763.62,-72.05C754.74,-62.92 743.67,-51.52 734.07,-41.63"/>
<polygon fill="black" stroke="black" points="736.63,-39.24 727.15,-34.51 731.61,-44.12 736.63,-39.24"/>
</g>
<!-- pathlib -->
<g id="node28" class="node">
<title>pathlib</title>
<ellipse fill="none" stroke="black" cx="1651.08" cy="-18" rx="35.6" ry="18"/>
<text text-anchor="middle" x="1651.08" y="-12.57" font-family="Times New Roman,serif" font-size="14.00">pathlib</text>
</g>
<!-- painting.py&#45;&gt;pathlib -->
<g id="edge32" class="edge">
<title>painting.py&#45;&gt;pathlib</title>
<path fill="none" stroke="black" d="M1651.08,-71.7C1651.08,-64.41 1651.08,-55.73 1651.08,-47.54"/>
<polygon fill="black" stroke="black" points="1654.58,-47.62 1651.08,-37.62 1647.58,-47.62 1654.58,-47.62"/>
</g>
<!-- tkinter -->
<g id="node29" class="node">
<title>tkinter</title>
<ellipse fill="none" stroke="black" cx="1738.08" cy="-18" rx="33.6" ry="18"/>
<text text-anchor="middle" x="1738.08" y="-12.57" font-family="Times New Roman,serif" font-size="14.00">tkinter</text>
</g>
<!-- painting.py&#45;&gt;tkinter -->
<g id="edge33" class="edge">
<title>painting.py&#45;&gt;tkinter</title>
<path fill="none" stroke="black" d="M1670.82,-73.12C1682.8,-63.48 1698.24,-51.06 1711.31,-40.54"/>
<polygon fill="black" stroke="black" points="1713.13,-43.57 1718.72,-34.58 1708.74,-38.12 1713.13,-43.57"/>
</g>
</g>
</svg>
