<?xml version="1.0" encoding="UTF-8" standalone="no"?>
<!DOCTYPE svg PUBLIC "-//W3C//DTD SVG 1.1//EN"
 "http://www.w3.org/Graphics/SVG/1.1/DTD/svg11.dtd">
<!-- Generated by graphviz version 9.0.0 (20230911.1827)
 -->
<!-- Pages: 1 -->
<svg width="1576pt" height="188pt"
 viewBox="0.00 0.00 1575.66 188.00" xmlns="http://www.w3.org/2000/svg" xmlns:xlink="http://www.w3.org/1999/xlink">
<g id="graph0" class="graph" transform="scale(1 1) rotate(0) translate(4 184)">
<polygon fill="white" stroke="none" points="-4,4 -4,-184 1571.66,-184 1571.66,4 -4,4"/>
<!-- Practice7 -->
<g id="node1" class="node">
<title>Practice7</title>
<ellipse fill="none" stroke="black" cx="844.08" cy="-162" rx="45.08" ry="18"/>
<text text-anchor="middle" x="844.08" y="-156.57" font-family="Times New Roman,serif" font-size="14.00">Practice7</text>
</g>
<!-- task1.py -->
<g id="node2" class="node">
<title>task1.py</title>
<ellipse fill="none" stroke="black" cx="42.08" cy="-90" rx="42.08" ry="18"/>
<text text-anchor="middle" x="42.08" y="-84.58" font-family="Times New Roman,serif" font-size="14.00">task1.py</text>
</g>
<!-- Practice7&#45;&gt;task1.py -->
<g id="edge1" class="edge">
<title>Practice7&#45;&gt;task1.py</title>
<path fill="none" stroke="black" d="M798.7,-161.74C680.95,-162.8 356.54,-160.34 93.08,-108 90.1,-107.41 87.04,-106.69 83.99,-105.89"/>
<polygon fill="black" stroke="black" points="85.07,-102.56 74.49,-103.12 83.11,-109.28 85.07,-102.56"/>
</g>
<!-- task2.py -->
<g id="node3" class="node">
<title>task2.py</title>
<ellipse fill="none" stroke="black" cx="144.08" cy="-90" rx="42.08" ry="18"/>
<text text-anchor="middle" x="144.08" y="-84.58" font-family="Times New Roman,serif" font-size="14.00">task2.py</text>
</g>
<!-- Practice7&#45;&gt;task2.py -->
<g id="edge2" class="edge">
<title>Practice7&#45;&gt;task2.py</title>
<path fill="none" stroke="black" d="M798.71,-161.02C692.19,-160.26 418.26,-153.62 195.08,-108 192.1,-107.39 189.05,-106.66 185.99,-105.85"/>
<polygon fill="black" stroke="black" points="187.08,-102.52 176.5,-103.06 185.11,-109.24 187.08,-102.52"/>
</g>
<!-- task3.py -->
<g id="node4" class="node">
<title>task3.py</title>
<ellipse fill="none" stroke="black" cx="246.08" cy="-90" rx="42.08" ry="18"/>
<text text-anchor="middle" x="246.08" y="-84.58" font-family="Times New Roman,serif" font-size="14.00">task3.py</text>
</g>
<!-- Practice7&#45;&gt;task3.py -->
<g id="edge3" class="edge">
<title>Practice7&#45;&gt;task3.py</title>
<path fill="none" stroke="black" d="M798.89,-160.05C704.61,-157.32 480.48,-146.93 297.08,-108 294.1,-107.37 291.06,-106.62 288,-105.8"/>
<polygon fill="black" stroke="black" points="289.09,-102.47 278.51,-102.99 287.11,-109.18 289.09,-102.47"/>
</g>
<!-- task4.py -->
<g id="node5" class="node">
<title>task4.py</title>
<ellipse fill="none" stroke="black" cx="348.08" cy="-90" rx="42.08" ry="18"/>
<text text-anchor="middle" x="348.08" y="-84.58" font-family="Times New Roman,serif" font-size="14.00">task4.py</text>
</g>
<!-- Practice7&#45;&gt;task4.py -->
<g id="edge4" class="edge">
<title>Practice7&#45;&gt;task4.py</title>
<path fill="none" stroke="black" d="M799.36,-158.69C718.59,-153.84 543.34,-140.28 399.08,-108 396.15,-107.34 393.15,-106.58 390.15,-105.76"/>
<polygon fill="black" stroke="black" points="391.39,-102.48 380.81,-102.97 389.39,-109.18 391.39,-102.48"/>
</g>
<!-- HashTable.py -->
<g id="node6" class="node">
<title>HashTable.py</title>
<ellipse fill="none" stroke="black" cx="471.08" cy="-90" rx="62.54" ry="18"/>
<text text-anchor="middle" x="471.08" y="-84.58" font-family="Times New Roman,serif" font-size="14.00">HashTable.py</text>
</g>
<!-- Practice7&#45;&gt;HashTable.py -->
<g id="edge5" class="edge">
<title>Practice7&#45;&gt;HashTable.py</title>
<path fill="none" stroke="black" d="M802.55,-154.46C744.36,-145.13 635.33,-127 543.08,-108 538.28,-107.01 533.31,-105.94 528.33,-104.83"/>
<polygon fill="black" stroke="black" points="529.47,-101.5 518.95,-102.7 527.93,-108.33 529.47,-101.5"/>
</g>
<!-- 1.py -->
<g id="node7" class="node">
<title>1.py</title>
<ellipse fill="none" stroke="black" cx="651.08" cy="-90" rx="27.11" ry="18"/>
<text text-anchor="middle" x="651.08" y="-84.58" font-family="Times New Roman,serif" font-size="14.00">1.py</text>
</g>
<!-- Practice7&#45;&gt;1.py -->
<g id="edge6" class="edge">
<title>Practice7&#45;&gt;1.py</title>
<path fill="none" stroke="black" d="M809.01,-150.23C777.14,-140.17 729,-124.3 688.08,-108 686.32,-107.3 684.52,-106.56 682.72,-105.79"/>
<polygon fill="black" stroke="black" points="684.39,-102.71 673.83,-101.88 681.57,-109.11 684.39,-102.71"/>
</g>
<!-- 2.py -->
<g id="node9" class="node">
<title>2.py</title>
<ellipse fill="none" stroke="black" cx="909.08" cy="-90" rx="27.11" ry="18"/>
<text text-anchor="middle" x="909.08" y="-84.58" font-family="Times New Roman,serif" font-size="14.00">2.py</text>
</g>
<!-- Practice7&#45;&gt;2.py -->
<g id="edge8" class="edge">
<title>Practice7&#45;&gt;2.py</title>
<path fill="none" stroke="black" d="M859.16,-144.76C867.63,-135.64 878.34,-124.11 887.67,-114.06"/>
<polygon fill="black" stroke="black" points="890.15,-116.54 894.39,-106.83 885.02,-111.77 890.15,-116.54"/>
</g>
<!-- 3.py -->
<g id="node10" class="node">
<title>3.py</title>
<ellipse fill="none" stroke="black" cx="579.08" cy="-90" rx="27.11" ry="18"/>
<text text-anchor="middle" x="579.08" y="-84.58" font-family="Times New Roman,serif" font-size="14.00">3.py</text>
</g>
<!-- Practice7&#45;&gt;3.py -->
<g id="edge9" class="edge">
<title>Practice7&#45;&gt;3.py</title>
<path fill="none" stroke="black" d="M802.8,-154.2C756.36,-145.91 679.07,-130.23 615.08,-108 613.53,-107.46 611.96,-106.88 610.38,-106.26"/>
<polygon fill="black" stroke="black" points="612.05,-103.17 601.48,-102.44 609.29,-109.6 612.05,-103.17"/>
</g>
<!-- 4.py -->
<g id="node11" class="node">
<title>4.py</title>
<ellipse fill="none" stroke="black" cx="981.08" cy="-90" rx="27.11" ry="18"/>
<text text-anchor="middle" x="981.08" y="-84.58" font-family="Times New Roman,serif" font-size="14.00">4.py</text>
</g>
<!-- Practice7&#45;&gt;4.py -->
<g id="edge11" class="edge">
<title>Practice7&#45;&gt;4.py</title>
<path fill="none" stroke="black" d="M871.15,-147.17C893.74,-135.63 925.95,-119.17 949.67,-107.05"/>
<polygon fill="black" stroke="black" points="951.24,-110.18 958.56,-102.51 948.06,-103.94 951.24,-110.18"/>
</g>
<!-- 5.py -->
<g id="node14" class="node">
<title>5.py</title>
<ellipse fill="none" stroke="black" cx="1053.08" cy="-90" rx="27.11" ry="18"/>
<text text-anchor="middle" x="1053.08" y="-84.58" font-family="Times New Roman,serif" font-size="14.00">5.py</text>
</g>
<!-- Practice7&#45;&gt;5.py -->
<g id="edge14" class="edge">
<title>Practice7&#45;&gt;5.py</title>
<path fill="none" stroke="black" d="M881.05,-151.34C916.44,-141.7 971.09,-125.8 1017.08,-108 1018.61,-107.41 1020.17,-106.78 1021.73,-106.13"/>
<polygon fill="black" stroke="black" points="1022.87,-109.45 1030.6,-102.2 1020.04,-103.05 1022.87,-109.45"/>
</g>
<!-- html.py -->
<g id="node16" class="node">
<title>html.py</title>
<ellipse fill="none" stroke="black" cx="1137.08" cy="-90" rx="38.59" ry="18"/>
<text text-anchor="middle" x="1137.08" y="-84.58" font-family="Times New Roman,serif" font-size="14.00">html.py</text>
</g>
<!-- Practice7&#45;&gt;html.py -->
<g id="edge18" class="edge">
<title>Practice7&#45;&gt;html.py</title>
<path fill="none" stroke="black" d="M884.79,-153.84C933.72,-144.85 1018.12,-128.15 1089.08,-108 1091.63,-107.28 1094.24,-106.49 1096.86,-105.66"/>
<polygon fill="black" stroke="black" points="1097.74,-109.06 1106.13,-102.59 1095.54,-102.41 1097.74,-109.06"/>
</g>
<!-- api_generator.py -->
<g id="node19" class="node">
<title>api_generator.py</title>
<ellipse fill="none" stroke="black" cx="1267.08" cy="-90" rx="73.02" ry="18"/>
<text text-anchor="middle" x="1267.08" y="-84.58" font-family="Times New Roman,serif" font-size="14.00">api_generator.py</text>
</g>
<!-- Practice7&#45;&gt;api_generator.py -->
<g id="edge21" class="edge">
<title>Practice7&#45;&gt;api_generator.py</title>
<path fill="none" stroke="black" d="M886.19,-155.15C950.7,-146.03 1077.79,-127.45 1185.08,-108 1190.66,-106.99 1196.44,-105.89 1202.24,-104.76"/>
<polygon fill="black" stroke="black" points="1202.74,-108.23 1211.86,-102.84 1201.37,-101.36 1202.74,-108.23"/>
</g>
<!-- example.py -->
<g id="node22" class="node">
<title>example.py</title>
<ellipse fill="none" stroke="black" cx="1411.08" cy="-90" rx="53.06" ry="18"/>
<text text-anchor="middle" x="1411.08" y="-84.58" font-family="Times New Roman,serif" font-size="14.00">example.py</text>
</g>
<!-- Practice7&#45;&gt;example.py -->
<g id="edge24" class="edge">
<title>Practice7&#45;&gt;example.py</title>
<path fill="none" stroke="black" d="M888.68,-158.77C977.14,-153.8 1180.8,-139.68 1349.08,-108 1353.1,-107.24 1357.24,-106.35 1361.39,-105.39"/>
<polygon fill="black" stroke="black" points="1361.95,-108.85 1370.81,-103.04 1360.26,-102.06 1361.95,-108.85"/>
</g>
<!-- module_scanner.py -->
<g id="node23" class="node">
<title>module_scanner.py</title>
<ellipse fill="none" stroke="black" cx="780.08" cy="-90" rx="83.5" ry="18"/>
<text text-anchor="middle" x="780.08" y="-84.58" font-family="Times New Roman,serif" font-size="14.00">module_scanner.py</text>
</g>
<!-- Practice7&#45;&gt;module_scanner.py -->
<g id="edge25" class="edge">
<title>Practice7&#45;&gt;module_scanner.py</title>
<path fill="none" stroke="black" d="M829.24,-144.76C821.55,-136.35 811.98,-125.89 803.34,-116.44"/>
<polygon fill="black" stroke="black" points="806.09,-114.26 796.76,-109.24 800.92,-118.98 806.09,-114.26"/>
</g>
<!-- fortik.py -->
<g id="node25" class="node">
<title>fortik.py</title>
<ellipse fill="none" stroke="black" cx="1525.08" cy="-90" rx="42.58" ry="18"/>
<text text-anchor="middle" x="1525.08" y="-84.58" font-family="Times New Roman,serif" font-size="14.00">fortik.py</text>
</g>
<!-- Practice7&#45;&gt;fortik.py -->
<g id="edge28" class="edge">
<title>Practice7&#45;&gt;fortik.py</title>
<path fill="none" stroke="black" d="M889.51,-160.7C992.76,-159.2 1251.96,-151 1464.08,-108 1469.17,-106.97 1474.45,-105.6 1479.7,-104.09"/>
<polygon fill="black" stroke="black" points="1480.37,-107.55 1488.92,-101.29 1478.33,-100.85 1480.37,-107.55"/>
</g>
<!-- Practice7&#45;&gt;fortik.py -->
<g id="edge29" class="edge">
<title>Practice7&#45;&gt;fortik.py</title>
<path fill="none" stroke="black" d="M889.5,-160.82C994.97,-159.66 1263.52,-152.31 1482.08,-108 1483.5,-107.71 1484.92,-107.4 1486.36,-107.07"/>
<polygon fill="black" stroke="black" points="1487.12,-110.49 1495.89,-104.54 1485.33,-103.72 1487.12,-110.49"/>
</g>
<!-- graphviz -->
<g id="node8" class="node">
<title>graphviz</title>
<ellipse fill="none" stroke="black" cx="647.08" cy="-18" rx="42.08" ry="18"/>
<text text-anchor="middle" x="647.08" y="-12.57" font-family="Times New Roman,serif" font-size="14.00">graphviz</text>
</g>
<!-- 1.py&#45;&gt;graphviz -->
<g id="edge7" class="edge">
<title>1.py&#45;&gt;graphviz</title>
<path fill="none" stroke="black" d="M650.09,-71.7C649.68,-64.41 649.18,-55.73 648.71,-47.54"/>
<polygon fill="black" stroke="black" points="652.21,-47.4 648.15,-37.62 645.22,-47.8 652.21,-47.4"/>
</g>
<!-- 3.py&#45;&gt;graphviz -->
<g id="edge10" class="edge">
<title>3.py&#45;&gt;graphviz</title>
<path fill="none" stroke="black" d="M593.17,-74.5C602.01,-65.4 613.63,-53.44 623.81,-42.96"/>
<polygon fill="black" stroke="black" points="626.08,-45.65 630.53,-36.04 621.05,-40.77 626.08,-45.65"/>
</g>
<!-- numpy -->
<g id="node12" class="node">
<title>numpy</title>
<ellipse fill="none" stroke="black" cx="981.08" cy="-18" rx="36.09" ry="18"/>
<text text-anchor="middle" x="981.08" y="-12.57" font-family="Times New Roman,serif" font-size="14.00">numpy</text>
</g>
<!-- 4.py&#45;&gt;numpy -->
<g id="edge12" class="edge">
<title>4.py&#45;&gt;numpy</title>
<path fill="none" stroke="black" d="M981.08,-71.7C981.08,-64.41 981.08,-55.73 981.08,-47.54"/>
<polygon fill="black" stroke="black" points="984.58,-47.62 981.08,-37.62 977.58,-47.62 984.58,-47.62"/>
</g>
<!-- matplotlib.pyplot -->
<g id="node13" class="node">
<title>matplotlib.pyplot</title>
<ellipse fill="none" stroke="black" cx="853.08" cy="-18" rx="74.02" ry="18"/>
<text text-anchor="middle" x="853.08" y="-12.57" font-family="Times New Roman,serif" font-size="14.00">matplotlib.pyplot</text>
</g>
<!-- 4.py&#45;&gt;matplotlib.pyplot -->
<g id="edge13" class="edge">
<title>4.py&#45;&gt;matplotlib.pyplot</title>
<path fill="none" stroke="black" d="M960.52,-77.75C942.13,-67.7 914.69,-52.69 892.15,-40.36"/>
<polygon fill="black" stroke="black" points="893.96,-37.37 883.51,-35.64 890.6,-43.51 893.96,-37.37"/>
</g>
<!-- 5.py&#45;&gt;numpy -->
<g id="edge15" class="edge">
<title>5.py&#45;&gt;numpy</title>
<path fill="none" stroke="black" d="M1038.16,-74.5C1028.58,-65.18 1015.92,-52.87 1004.95,-42.21"/>
<polygon fill="black" stroke="black" points="1007.68,-39.97 998.07,-35.51 1002.8,-44.99 1007.68,-39.97"/>
</g>
<!-- 5.py&#45;&gt;matplotlib.pyplot -->
<g id="edge16" class="edge">
<title>5.py&#45;&gt;matplotlib.pyplot</title>
<path fill="none" stroke="black" d="M1031.96,-78.47C1027.12,-76.22 1021.97,-73.93 1017.08,-72 982.24,-58.21 942.24,-45.23 910.47,-35.56"/>
<polygon fill="black" stroke="black" points="911.63,-32.26 901.04,-32.72 909.61,-38.96 911.63,-32.26"/>
</g>
<!-- seaborn -->
<g id="node15" class="node">
<title>seaborn</title>
<ellipse fill="none" stroke="black" cx="1075.08" cy="-18" rx="40.09" ry="18"/>
<text text-anchor="middle" x="1075.08" y="-12.57" font-family="Times New Roman,serif" font-size="14.00">seaborn</text>
</g>
<!-- 5.py&#45;&gt;seaborn -->
<g id="edge17" class="edge">
<title>5.py&#45;&gt;seaborn</title>
<path fill="none" stroke="black" d="M1058.41,-72.05C1060.75,-64.6 1063.57,-55.64 1066.21,-47.22"/>
<polygon fill="black" stroke="black" points="1069.54,-48.31 1069.2,-37.72 1062.86,-46.21 1069.54,-48.31"/>
</g>
<!-- contextlib -->
<g id="node17" class="node">
<title>contextlib</title>
<ellipse fill="none" stroke="black" cx="1266.08" cy="-18" rx="47.07" ry="18"/>
<text text-anchor="middle" x="1266.08" y="-12.57" font-family="Times New Roman,serif" font-size="14.00">contextlib</text>
</g>
<!-- html.py&#45;&gt;contextlib -->
<g id="edge19" class="edge">
<title>html.py&#45;&gt;contextlib</title>
<path fill="none" stroke="black" d="M1161.65,-75.67C1180.96,-65.19 1208.14,-50.44 1229.94,-38.61"/>
<polygon fill="black" stroke="black" points="1231.38,-41.81 1238.5,-33.97 1228.04,-35.66 1231.38,-41.81"/>
</g>
<!-- typing -->
<g id="node18" class="node">
<title>typing</title>
<ellipse fill="none" stroke="black" cx="1167.08" cy="-18" rx="33.6" ry="18"/>
<text text-anchor="middle" x="1167.08" y="-12.57" font-family="Times New Roman,serif" font-size="14.00">typing</text>
</g>
<!-- html.py&#45;&gt;typing -->
<g id="edge20" class="edge">
<title>html.py&#45;&gt;typing</title>
<path fill="none" stroke="black" d="M1144.34,-72.05C1147.66,-64.32 1151.67,-54.96 1155.4,-46.27"/>
<polygon fill="black" stroke="black" points="1158.57,-47.75 1159.29,-37.18 1152.13,-44.99 1158.57,-47.75"/>
</g>
<!-- inspect -->
<g id="node20" class="node">
<title>inspect</title>
<ellipse fill="none" stroke="black" cx="1468.08" cy="-18" rx="37.09" ry="18"/>
<text text-anchor="middle" x="1468.08" y="-12.57" font-family="Times New Roman,serif" font-size="14.00">inspect</text>
</g>
<!-- api_generator.py&#45;&gt;inspect -->
<g id="edge22" class="edge">
<title>api_generator.py&#45;&gt;inspect</title>
<path fill="none" stroke="black" d="M1309.28,-74.88C1340.5,-64.36 1384.03,-49.53 1422.08,-36 1424.28,-35.22 1426.53,-34.41 1428.79,-33.59"/>
<polygon fill="black" stroke="black" points="1429.79,-36.95 1437.99,-30.24 1427.4,-30.38 1429.79,-36.95"/>
</g>
<!-- example -->
<g id="node21" class="node">
<title>example</title>
<ellipse fill="none" stroke="black" cx="1372.08" cy="-18" rx="41.08" ry="18"/>
<text text-anchor="middle" x="1372.08" y="-12.57" font-family="Times New Roman,serif" font-size="14.00">example</text>
</g>
<!-- api_generator.py&#45;&gt;example -->
<g id="edge23" class="edge">
<title>api_generator.py&#45;&gt;example</title>
<path fill="none" stroke="black" d="M1291.7,-72.59C1306.36,-62.82 1325.1,-50.32 1340.8,-39.86"/>
<polygon fill="black" stroke="black" points="1342.48,-42.94 1348.86,-34.48 1338.6,-37.12 1342.48,-42.94"/>
</g>
<!-- module_scanner.py&#45;&gt;graphviz -->
<g id="edge27" class="edge">
<title>module_scanner.py&#45;&gt;graphviz</title>
<path fill="none" stroke="black" d="M749.57,-72.94C729.76,-62.51 703.84,-48.87 683.03,-37.92"/>
<polygon fill="black" stroke="black" points="684.79,-34.89 674.31,-33.33 681.53,-41.09 684.79,-34.89"/>
</g>
<!-- os -->
<g id="node24" class="node">
<title>os</title>
<ellipse fill="none" stroke="black" cx="734.08" cy="-18" rx="27" ry="18"/>
<text text-anchor="middle" x="734.08" y="-12.57" font-family="Times New Roman,serif" font-size="14.00">os</text>
</g>
<!-- module_scanner.py&#45;&gt;os -->
<g id="edge26" class="edge">
<title>module_scanner.py&#45;&gt;os</title>
<path fill="none" stroke="black" d="M768.71,-71.7C763.24,-63.37 756.58,-53.23 750.56,-44.08"/>
<polygon fill="black" stroke="black" points="753.63,-42.37 745.21,-35.94 747.78,-46.22 753.63,-42.37"/>
</g>
</g>
</svg>
